<svg id="Слой_1" data-name="Слой 1" xmlns="http://www.w3.org/2000/svg" viewBox="0 0 415.51 79.7"><defs><style>.cls-1{fill:#2d2d2d;}.cls-1,.cls-2,.cls-4,.cls-5,.cls-6{fill-rule:evenodd;}.cls-2,.cls-3{fill:#eb5d36;}.cls-4{fill:#303030;}.cls-5{fill:#2e2e2e;}.cls-6{fill:#2e2f2f;}</style></defs><g id="Слой_1-2" data-name="Слой_1"><path class="cls-1" d="M201.67,381.12h44.15a5.62,5.62,0,0,1,5.6,5.6V454.2a5.62,5.62,0,0,1-5.6,5.61H201.67a5.62,5.62,0,0,1-5.6-5.61V386.72a5.62,5.62,0,0,1,5.6-5.6Zm7,9H238.8a3.83,3.83,0,0,1,3.82,3.82v48.37a3.83,3.83,0,0,1-3.82,3.82H208.69a3.83,3.83,0,0,1-3.82-3.82V393.94A3.83,3.83,0,0,1,208.69,390.12Zm14.54,58.3a4.31,4.31,0,1,1-4.31,4.31A4.3,4.3,0,0,1,223.23,448.42Z" transform="translate(-90.25 -380.6)"/><g id="_2923223600240" data-name=" 2923223600240"><path class="cls-2" d="M237.31,412.18a5.19,5.19,0,0,1-3.27,6.57c-2.68.83-1.3-2-2.17-4.81s-3.65-4.5-1-5.33A5.19,5.19,0,0,1,237.31,412.18Z" transform="translate(-90.25 -380.6)"/><circle class="cls-3" cx="133.18" cy="35.92" r="7.28"/><path class="cls-2" d="M223.41,402a5.2,5.2,0,0,1,5.33,5.05c0,2.8-2.3.66-5.23.67s-5.38,2.17-5.39-.63a5.19,5.19,0,0,1,5.29-5.09Z" transform="translate(-90.25 -380.6)"/><path class="cls-2" d="M209.61,412a5.2,5.2,0,0,1,6.45-3.52c2.67.86-.08,2.39-1,5.18s.41,5.79-2.26,4.94A5.2,5.2,0,0,1,209.61,412Z" transform="translate(-90.25 -380.6)"/><path class="cls-2" d="M231.58,428.61a5.2,5.2,0,0,1-7.25-1.16c-1.59-2.31,1.53-1.84,3.95-3.5s3.21-4.83,4.8-2.53A5.19,5.19,0,0,1,231.58,428.61Z" transform="translate(-90.25 -380.6)"/><path class="cls-2" d="M214.67,428.16a5.19,5.19,0,0,1-1.24-7.23c1.67-2.25,2.24.85,4.59,2.6s5.61,1.48,3.94,3.73a5.19,5.19,0,0,1-7.29.9Z" transform="translate(-90.25 -380.6)"/></g><path class="cls-1" d="M132.54,394.14H106.16V415.5q12.8-.19,25.55.42a19.93,19.93,0,0,1,0,11.3,1.84,1.84,0,0,0-.84.63q-12.36.31-24.71.21V457.8a5.14,5.14,0,0,1-2.09,1.88,30,30,0,0,1-12.15,0,3.66,3.66,0,0,1-1.46-1.46q-.42-37.28,0-74.55a4.53,4.53,0,0,1,2.3-2.3q20.31-.53,40.62.2a23.48,23.48,0,0,1,.63,9.22,5.57,5.57,0,0,1-1.47,3.35Z" transform="translate(-90.25 -380.6)"/><path class="cls-4" d="M187.8,459.05a1.84,1.84,0,0,0-.84.63q-19.05.31-38.11.21a4.85,4.85,0,0,1-3.14-3.77q-.42-36.86,0-73.71l1-1a32.76,32.76,0,0,1,12.56,0,3.21,3.21,0,0,1,2.31,1.46q.3,31.83.2,63.66,12.78-.21,25.55.42a11,11,0,0,1,1.26,6.28,16.05,16.05,0,0,1-.84,5.86Z" transform="translate(-90.25 -380.6)"/><path class="cls-5" d="M308.08,381.44q6.69-.49,13.4-.42a3.79,3.79,0,0,1,3.14,2.93q7.38,29.78,14.87,59.47,7.33-30.78,14.45-61.56a3.5,3.5,0,0,1,2.3-1.05,50.71,50.71,0,0,1,9.22,0,2.94,2.94,0,0,1,3.35,2.3q-9.46,37.35-19.48,74.55a4.64,4.64,0,0,1-2.72,1.89,56.65,56.65,0,0,1-16.75,0L328,457.66q-6.5-25.8-13.19-51.51-6.15,24.62-11.94,49.42a5.48,5.48,0,0,1-5.23,4.39,73.79,73.79,0,0,1-15.08-.41l-1.88-1.89q-2.14-8.21-4.4-16.33a4.62,4.62,0,0,0-.84-2.93q-6.95-27.45-14.24-54.87a2.91,2.91,0,0,1,2.52-2.72,57.36,57.36,0,0,1,12.56.42,2.93,2.93,0,0,1,1.47,1q6.91,30.62,14.24,61.14,7.46-30.12,14.65-60.31a2.92,2.92,0,0,1,1.47-1.67Z" transform="translate(-90.25 -380.6)"/><path class="cls-5" d="M491.09,436.44a4.31,4.31,0,0,0,.63,1.67,47.09,47.09,0,0,0-.21-10.89q-.67-22.39-.21-44.81a4.83,4.83,0,0,1,1.89-1.46,54.1,54.1,0,0,1,11.52.21,1.53,1.53,0,0,1,.83.83q.42,36.86,0,73.71a6.45,6.45,0,0,1-2.3,3.14,61.41,61.41,0,0,1-13.82.42,11.94,11.94,0,0,1-6.07-5.65q-10.49-19.73-20.94-39.37-3.92-7.38-7.12-15.08a137.87,137.87,0,0,0,.21,14.66q.11,21.78-.21,43.56a2.92,2.92,0,0,1-1.47,1.67,70.17,70.17,0,0,1-10.05.42,2.38,2.38,0,0,1-2.3-1.25q-.42-37.49,0-75a13.15,13.15,0,0,1,3.14-2.3,89.71,89.71,0,0,1,14.66.21,15.93,15.93,0,0,1,5.23,3.77q14.1,25.5,26.59,51.51Z" transform="translate(-90.25 -380.6)"/><path class="cls-6" d="M424.51,393.3H396v19.27h24.71a6.62,6.62,0,0,1,1,1.67,46.2,46.2,0,0,1,0,8.8,2.92,2.92,0,0,1-1.46,1.67H396v22.2q14.89-.2,29.73.42a1.76,1.76,0,0,0,.63.83,60.35,60.35,0,0,1,0,10.06,2.91,2.91,0,0,1-1.47,1q-20.94.42-41.88,0a6.43,6.43,0,0,1-2.72-2.72q-.61-36.9.42-73.71A7.55,7.55,0,0,1,383,381q21.15-.42,42.3,0a8.26,8.26,0,0,1,1.26,5.23A41,41,0,0,1,426,392a6,6,0,0,1-1.46,1.26Z" transform="translate(-90.25 -380.6)"/></g></svg>