<svg id="Слой_1" data-name="Слой 1" xmlns="http://www.w3.org/2000/svg" viewBox="0 0 420.89 78.96"><defs><style>.cls-1{fill:#2c2c2c;}.cls-1,.cls-2,.cls-4,.cls-5,.cls-6{fill-rule:evenodd;}.cls-2,.cls-3{fill:#f25b32;}.cls-4{fill:#2f2f2f;}.cls-5{fill:#2d2d2d;}.cls-6{fill:#2e2e2e;}</style></defs><g id="Слой_1-2" data-name="Слой_1"><path class="cls-1" d="M216.88,256.5H261a5.62,5.62,0,0,1,5.61,5.6v67.71a5.62,5.62,0,0,1-5.61,5.6H216.88a5.62,5.62,0,0,1-5.6-5.6V262.1a5.62,5.62,0,0,1,5.6-5.6Zm7,9.22H254a3.83,3.83,0,0,1,3.82,3.82v48.37a3.83,3.83,0,0,1-3.82,3.82h-30.1a3.83,3.83,0,0,1-3.82-3.82V269.54A3.83,3.83,0,0,1,223.91,265.72ZM238.44,324a4.31,4.31,0,1,1-4.3,4.3A4.3,4.3,0,0,1,238.44,324Z" transform="translate(-100.53 -256.45)"/><g id="_2519437307472" data-name=" 2519437307472"><path class="cls-2" d="M252.53,287.78a5.2,5.2,0,0,1-3.28,6.57c-2.67.83-1.3-2-2.16-4.8s-3.65-4.51-1-5.34A5.2,5.2,0,0,1,252.53,287.78Z" transform="translate(-100.53 -256.45)"/><circle class="cls-3" cx="138.11" cy="35.68" r="7.28"/><path class="cls-2" d="M238.62,277.62a5.2,5.2,0,0,1,5.33,5.05c0,2.81-2.3.66-5.23.67s-5.38,2.17-5.39-.63a5.19,5.19,0,0,1,5.29-5.09Z" transform="translate(-100.53 -256.45)"/><path class="cls-2" d="M224.83,287.61a5.18,5.18,0,0,1,6.44-3.51c2.67.85-.08,2.39-1,5.18s.41,5.78-2.26,4.93A5.18,5.18,0,0,1,224.83,287.61Z" transform="translate(-100.53 -256.45)"/><path class="cls-2" d="M246.8,304.22a5.2,5.2,0,0,1-7.25-1.17c-1.59-2.31,1.53-1.84,3.94-3.5s3.21-4.83,4.8-2.52A5.2,5.2,0,0,1,246.8,304.22Z" transform="translate(-100.53 -256.45)"/><path class="cls-2" d="M229.89,303.77a5.2,5.2,0,0,1-1.24-7.24c1.67-2.25,2.23.85,4.59,2.6s5.6,1.48,3.93,3.73a5.19,5.19,0,0,1-7.28.91Z" transform="translate(-100.53 -256.45)"/></g><path class="cls-1" d="M142.83,269.41H116.44v21.3q12.81-.19,25.55.42a19.86,19.86,0,0,1,0,11.28,1.84,1.84,0,0,0-.84.63q-12.35.31-24.71.21v29.66a5,5,0,0,1-2.09,1.88,30.26,30.26,0,0,1-12.14,0,3.69,3.69,0,0,1-1.47-1.46q-.42-37.18,0-74.37a4.68,4.68,0,0,1,2.3-2.3q20.33-.51,40.63.21a23.15,23.15,0,0,1,.62,9.19,5.59,5.59,0,0,1-1.46,3.35Z" transform="translate(-100.53 -256.45)"/><path class="cls-4" d="M199.79,334.55a1.71,1.71,0,0,0-.84.62q-19.06.31-38.11.21a4.83,4.83,0,0,1-3.14-3.76q-.42-36.76,0-73.53l1-1a33.22,33.22,0,0,1,12.57,0,3.2,3.2,0,0,1,2.3,1.46q.31,31.75.21,63.5,12.78-.21,25.55.42a10.86,10.86,0,0,1,1.25,6.27,16,16,0,0,1-.83,5.85Z" transform="translate(-100.53 -256.45)"/><path class="cls-5" d="M324.1,256.58c4.58-.09,8.64-.05,13.12,0a4.14,4.14,0,0,1,3.07,3.28q7.38,29.5,14.87,58.95,7.33-30.51,14.45-61a3.75,3.75,0,0,1,2.3-1.22c3.07,0,12.2-.78,12.57,2.46Q375,296,365,332.92a4.65,4.65,0,0,1-2.72,1.87,56.65,56.65,0,0,1-16.75,0l-1.89-1.87q-6.5-25.57-13.19-51.06-6.15,24.4-11.94,49a5.49,5.49,0,0,1-5.23,4.36,75.24,75.24,0,0,1-15.08-.41l-1.88-1.87q-2.15-8.13-4.4-16.19l-.84-2.91q-6.94-27.19-14.24-54.37a2.9,2.9,0,0,1,2.52-2.7,120.73,120.73,0,0,1,12.65-.11,2.3,2.3,0,0,1,1.29.91c4.62,20.24,9.45,41.09,14.33,61.26Q315.09,289,322.28,259a5.5,5.5,0,0,1,1.82-2.45Z" transform="translate(-100.53 -256.45)"/><path class="cls-5" d="M506.76,312.3a4.29,4.29,0,0,0,.63,1.68,47.25,47.25,0,0,0-.21-10.91q-.68-22.44-.21-44.9a4.83,4.83,0,0,1,1.89-1.46,54.1,54.1,0,0,1,11.52.21,1.52,1.52,0,0,1,.83.84q.42,36.92,0,73.84a6.47,6.47,0,0,1-2.3,3.15,61.41,61.41,0,0,1-13.82.42A12,12,0,0,1,499,329.5l-20.94-39.44q-3.91-7.4-7.12-15.1a138.24,138.24,0,0,0,.21,14.68q.1,21.83-.21,43.64a3,3,0,0,1-1.47,1.68,70.17,70.17,0,0,1-10.05.42,2.4,2.4,0,0,1-2.3-1.26q-.42-37.56,0-75.11a13.15,13.15,0,0,1,3.14-2.3,89.71,89.71,0,0,1,14.66.21,15.93,15.93,0,0,1,5.23,3.77q14.1,25.56,26.59,51.61Z" transform="translate(-100.53 -256.45)"/><path class="cls-6" d="M440.18,269.09H411.7V288.4h24.71a6.68,6.68,0,0,1,1,1.68,46.31,46.31,0,0,1,0,8.81,2.91,2.91,0,0,1-1.46,1.68H411.7v22.25q14.9-.21,29.73.42a1.84,1.84,0,0,0,.63.84,60.47,60.47,0,0,1,0,10.07,3,3,0,0,1-1.47,1.05q-20.94.42-41.88,0a6.45,6.45,0,0,1-2.72-2.73q-.62-37,.42-73.87a7.59,7.59,0,0,1,2.3-1.89q21.15-.42,42.3,0a8.32,8.32,0,0,1,1.26,5.25,41.31,41.31,0,0,1-.63,5.87,6,6,0,0,1-1.46,1.26Z" transform="translate(-100.53 -256.45)"/></g></svg>