<svg width="179" height="193" viewBox="0 0 179 193" fill="none" xmlns="http://www.w3.org/2000/svg">
<path fill-rule="evenodd" clip-rule="evenodd" d="M104.243 8.7584C101.9 6.41533 98.101 6.41533 95.7578 8.7584L55.7578 48.7584C53.4146 51.1016 53.4146 54.9005 55.7578 57.2437C58.101 59.5868 61.9 59.5868 64.2432 57.2437L94.0005 27.4864V119.666C94.0005 122.98 96.6868 125.666 100.001 125.666C103.314 125.666 106.001 122.98 106.001 119.666V27.4864L135.759 57.2437C138.101 59.5868 141.9 59.5868 144.243 57.2437C146.587 54.9005 146.587 51.1016 144.243 48.7584L104.243 8.7584ZM33.3332 126.333C37.015 126.333 39.9998 129.317 39.9998 133V153C39.9998 160.384 45.9418 166.333 53.2845 166.333H146.683C154.039 166.333 160 160.371 160 153V133C160 129.317 162.985 126.333 166.667 126.333C170.348 126.333 173.333 129.317 173.333 133V153C173.333 167.72 161.416 179.667 146.683 179.667H53.2845C38.5357 179.667 26.6665 167.707 26.6665 153V133C26.6665 129.317 29.6513 126.333 33.3332 126.333Z" fill="black"/>
</svg>
