
<svg xmlns="http://www.w3.org/2000/svg" version="1.1" width="292px" height="59px" style="shape-rendering:geometricPrecision; text-rendering:geometricPrecision; image-rendering:optimizeQuality; fill-rule:evenodd; clip-rule:evenodd" xmlns:xlink="http://www.w3.org/1999/xlink">
    <g><path style="opacity:1" fill="#050505" d="M 50.5,46.5 C 56.3992,47.2049 62.3992,47.8716 68.5,48.5C 68.5,50.8333 68.5,53.1667 68.5,55.5C 58.985,55.8269 49.6517,55.4936 40.5,54.5C 40.1813,37.0898 40.5146,19.7564 41.5,2.5C 44.4442,1.4116 47.4442,1.4116 50.5,2.5C 50.5,17.1667 50.5,31.8333 50.5,46.5 Z"/></g>
    <g><path style="opacity:1" fill="#181818" d="M 176.5,40.5 C 177.032,43.4596 177.699,43.7929 178.5,41.5C 179.36,35.0608 180.693,28.7275 182.5,22.5C 184.163,20.5615 184.829,18.2282 184.5,15.5C 184.804,11.1452 185.804,6.97852 187.5,3C 190.03,1.57834 192.697,1.24501 195.5,2C 196.624,2.83884 197.291,4.00551 197.5,5.5C 193.335,21.4938 189.168,37.4938 185,53.5C 184.228,54.8491 183.061,55.6824 181.5,56C 177.463,56.6067 173.463,56.44 169.5,55.5C 166.859,44.1308 164.026,32.7975 161,21.5C 158.207,32.4653 155.54,43.4653 153,54.5C 147.972,57.0985 142.972,57.0985 138,54.5C 133.502,37.8439 129.002,21.1772 124.5,4.5C 126.059,2.305 128.226,1.305 131,1.5C 133.145,1.39599 134.979,2.06266 136.5,3.5C 139.512,16.5473 142.679,29.5473 146,42.5C 149.012,29.4527 152.179,16.4527 155.5,3.5C 159.5,0.833333 163.5,0.833333 167.5,3.5C 170.974,15.7279 173.974,28.0612 176.5,40.5 Z"/></g>
    <g><path style="opacity:1" fill="#161616" d="M 256.5,17.5 C 256.013,16.5266 255.513,15.5266 255,14.5C 254.5,28.1626 254.333,41.8293 254.5,55.5C 251.864,56.8236 249.198,56.8236 246.5,55.5C 245.334,38.1763 245.167,20.8429 246,3.5C 250.413,2.36761 254.913,2.20095 259.5,3C 266.889,14.2716 273.389,26.1049 279,38.5C 278.399,26.8869 278.399,15.2203 279,3.5C 282.3,1.20607 285.8,0.872739 289.5,2.5C 289.667,19.5033 289.5,36.5033 289,53.5C 283.813,57.5878 278.813,57.2545 274,52.5C 267.607,41.048 261.774,29.3814 256.5,17.5 Z"/></g></svg>