<svg width="43" height="55" viewBox="0 0 43 55" fill="none" xmlns="http://www.w3.org/2000/svg">
<path d="M10.0417 18.6668V13.5002C10.0417 10.0744 11.2489 6.78904 13.3977 4.3667C15.5466 1.94436 18.4611 0.583496 21.5 0.583496C24.5389 0.583496 27.4534 1.94436 29.6023 4.3667C31.7511 6.78904 32.9583 10.0744 32.9583 13.5002V18.6668H39.8333C40.4411 18.6668 41.024 18.939 41.4538 19.4235C41.8836 19.9079 42.125 20.565 42.125 21.2502V52.2502C42.125 52.9353 41.8836 53.5924 41.4538 54.0769C41.024 54.5613 40.4411 54.8335 39.8333 54.8335H3.16667C2.55888 54.8335 1.97598 54.5613 1.54621 54.0769C1.11644 53.5924 0.875 52.9353 0.875 52.2502V21.2502C0.875 20.565 1.11644 19.9079 1.54621 19.4235C1.97598 18.939 2.55888 18.6668 3.16667 18.6668H10.0417ZM10.0417 23.8335H5.45833V49.6668H37.5417V23.8335H32.9583V29.0002H28.375V23.8335H14.625V29.0002H10.0417V23.8335ZM14.625 18.6668H28.375V13.5002C28.375 11.4447 27.6507 9.47349 26.3614 8.02009C25.072 6.56668 23.3234 5.75016 21.5 5.75016C19.6766 5.75016 17.928 6.56668 16.6386 8.02009C15.3493 9.47349 14.625 11.4447 14.625 13.5002V18.6668Z" fill="black"/>
</svg>
